<?xml version="1.0" encoding="UTF-8" standalone="no"?>
<svg
   viewBox="0 0 728.47693 241.39973"
   height="241.39973"
   width="728.47693"
   xml:space="preserve"
   id="svg304"
   version="1.1"
   sodipodi:docname="ConferenceLogo.svg"
   inkscape:version="1.1.2 (0a00cf5339, 2022-02-04)"
   inkscape:export-filename="/home/martin/dev/ModelicaConference2021/images/ConferenceLogo.png"
   inkscape:export-xdpi="441"
   inkscape:export-ydpi="441"
   xmlns:inkscape="http://www.inkscape.org/namespaces/inkscape"
   xmlns:sodipodi="http://sodipodi.sourceforge.net/DTD/sodipodi-0.dtd"
   xmlns="http://www.w3.org/2000/svg"
   xmlns:svg="http://www.w3.org/2000/svg"
   xmlns:rdf="http://www.w3.org/1999/02/22-rdf-syntax-ns#"
   xmlns:cc="http://creativecommons.org/ns#"
   xmlns:dc="http://purl.org/dc/elements/1.1/"><sodipodi:namedview
     pagecolor="#ffffff"
     bordercolor="#666666"
     borderopacity="1"
     objecttolerance="10"
     gridtolerance="10"
     guidetolerance="10"
     inkscape:pageopacity="0"
     inkscape:pageshadow="2"
     inkscape:window-width="1920"
     inkscape:window-height="1007"
     id="namedview28"
     showgrid="false"
     fit-margin-left="0"
     fit-margin-top="0"
     fit-margin-right="0"
     fit-margin-bottom="0"
     inkscape:zoom="1.165216"
     inkscape:cx="335.98921"
     inkscape:cy="70.373218"
     inkscape:window-x="1920"
     inkscape:window-y="420"
     inkscape:window-maximized="1"
     inkscape:current-layer="g314"
     inkscape:pagecheckerboard="0" /><metadata
     id="metadata310"><rdf:RDF><cc:Work
         rdf:about=""><dc:format>image/svg+xml</dc:format><dc:type
           rdf:resource="http://purl.org/dc/dcmitype/StillImage" /></cc:Work></rdf:RDF></metadata><defs
     id="defs308" /><g
     transform="matrix(1.3333333,0,0,-1.3333333,227.84896,241.13281)"
     id="g312"><g
       transform="scale(0.1)"
       id="g314"><path
         id="path338"
         style="fill:#de1d31;fill-opacity:1;fill-rule:nonzero;stroke:none"
         d="m 2600.46,1101.13 c 0,56.46 45.77,102.23 102.22,102.23 56.47,0 102.24,-45.77 102.24,-102.23 0,-56.46 -45.77,-102.224 -102.24,-102.224 -56.45,0 -102.22,45.764 -102.22,102.224"
         inkscape:connector-curvature="0"
         inkscape:export-xdpi="441"
         inkscape:export-ydpi="441" /><path
         id="path342"
         style="fill:#1f262f;fill-opacity:1;fill-rule:nonzero;stroke:none"
         d="m 0.0507813,792.637 c 0,85.75 69.1015187,158.187 172.3442187,158.187 54.121,0 99.914,-19.984 129.882,-50.777 30.813,30.793 75.762,50.777 129.887,50.777 104.082,0 169.856,-72.437 169.856,-158.187 l -0.051,-376.778 h -94.926 l 0.051,362.621 c 0,59.106 -29.957,91.579 -76.582,91.579 -45.809,0 -81.61,-32.473 -81.61,-91.579 l -0.047,-362.621 h -95.742 l 0.047,362.621 c 0,59.106 -35.797,91.579 -82.422,91.579 -45.808,0 -75.781,-32.473 -75.781,-91.579 L 94.9102,415.859 H 0.00390625 L 0.0507813,792.637"
         inkscape:connector-curvature="0"
         inkscape:export-xdpi="441"
         inkscape:export-ydpi="441" /><path
         id="path344"
         style="fill:#1f262f;fill-opacity:1;fill-rule:nonzero;stroke:none"
         d="m 1485.39,500.398 c 54.13,0 97.42,43.274 97.42,97.403 0,54.121 -43.29,97.41 -97.42,97.41 -54.1,0 -97.39,-43.289 -97.39,-97.41 0,-54.129 43.29,-97.403 97.39,-97.403 z m 96.6,441.27 h 95.75 V 601.129 c 0,-105.719 -85.77,-192.309 -192.35,-192.309 -105.73,0 -191.49,86.59 -191.49,192.309 0,106.57 80.77,192.348 184.83,192.348 44.97,0 81.61,-20.817 103.26,-39.149 v 187.34"
         inkscape:connector-curvature="0"
         inkscape:export-xdpi="441"
         inkscape:export-ydpi="441" /><path
         id="path346"
         style="fill:#1f262f;fill-opacity:1;fill-rule:nonzero;stroke:none"
         d="m 1051.74,599.891 c 0,55.371 -37.44,102.531 -98.06,102.531 -60.617,0 -98.02,-47.16 -98.02,-102.531 0,-55.371 37.403,-102.539 98.02,-102.539 60.62,0 98.06,47.168 98.06,102.539 z m 91.3,0 c 0,-104.032 -83.83,-186.352 -189.36,-186.352 -105.528,0 -189.332,82.32 -189.332,186.352 0,104.757 83.804,186.339 189.332,186.339 105.53,0 189.36,-81.582 189.36,-186.339"
         inkscape:connector-curvature="0"
         inkscape:export-xdpi="441"
         inkscape:export-ydpi="441" /><path
         id="path348"
         style="fill:#1f262f;fill-opacity:1;fill-rule:nonzero;stroke:none"
         d="m 2094.85,632.801 c -1.53,30.699 -29.96,71.847 -89.08,71.847 -57.64,0 -83.81,-40.386 -86.8,-71.847 z m 89.79,-31.41 c 0,-6.75 0,-20.2 -0.74,-33.692 h -264.93 c 6.71,-31.418 43.38,-71.84 99.51,-71.84 62.12,0 97.3,35.942 97.3,35.942 l 44.9,-67.371 c 0,0 -56.13,-50.891 -142.2,-50.891 -107.75,0 -190.82,82.32 -190.82,186.352 0,104.039 75.6,186.339 178.11,186.339 97.28,0 178.87,-75.57 178.87,-184.839"
         inkscape:connector-curvature="0"
         inkscape:export-xdpi="441"
         inkscape:export-ydpi="441" /><path
         id="path350"
         style="fill:#1f262f;fill-opacity:1;fill-rule:nonzero;stroke:none"
         d="m 2360.79,941.668 h 93.4 V 415.859 h -93.4 v 525.809"
         inkscape:connector-curvature="0"
         inkscape:export-xdpi="441"
         inkscape:export-ydpi="441" /><path
         id="path352"
         style="fill:#1f262f;fill-opacity:1;fill-rule:nonzero;stroke:none"
         d="m 3181.32,540.762 59.12,-59.883 c 0,0 -50.89,-67.34 -146.68,-67.34 -106.26,0 -190.83,82.32 -190.83,186.352 0,104.757 84.57,186.339 190.83,186.339 95.06,0 145.18,-65.871 145.18,-65.871 l -62.12,-55.371 c 0,0 -29.16,37.434 -83.06,37.434 -60.63,0 -99.52,-47.16 -99.52,-102.531 0,-55.371 38.89,-102.539 99.52,-102.539 60.61,0 87.56,43.41 87.56,43.41"
         inkscape:connector-curvature="0"
         inkscape:export-xdpi="441"
         inkscape:export-ydpi="441" /><path
         id="path354"
         style="fill:#1f262f;fill-opacity:1;fill-rule:nonzero;stroke:none"
         d="m 2653.74,785.938 h 94.17 V 415.859 h -94.17 v 370.079"
         inkscape:connector-curvature="0"
         inkscape:export-xdpi="441"
         inkscape:export-ydpi="441" /><path
         id="path356"
         style="fill:#1f262f;fill-opacity:1;fill-rule:nonzero;stroke:none"
         d="m 3562.5,497.352 c -60.62,0 -98.02,47.168 -98.02,102.539 0,55.371 37.4,102.531 98.02,102.531 60.62,0 98.05,-47.16 98.05,-102.531 0,-55.371 -37.43,-102.539 -98.05,-102.539 z m 98.05,288.586 v -26.176 c -28.53,16.738 -61.96,26.468 -98.05,26.468 -105.53,0 -189.33,-81.582 -189.33,-186.339 0,-104.032 83.8,-186.352 189.33,-186.352 36.09,0 69.52,9.82 98.05,26.652 v -24.57 h 94.16 v 370.317 h -94.16"
         inkscape:connector-curvature="0"
         inkscape:export-xdpi="441"
         inkscape:export-ydpi="441" /><g
         aria-label="15"
         transform="matrix(7.5000002,0,0,-7.5000002,-1798.8233,1509.7658)"
         id="flowRoot30"
         style="font-size:20px;line-height:125%;font-family:Sans;letter-spacing:0px;word-spacing:0px;fill:#707a84;stroke-width:1px"><path
           d="m 79.376953,147.32812 q -9.609375,-0.9375 -32.8125,-0.9375 -24.023437,0 -33.632812,0.9375 -0.9375,0 -0.9375,-1.40625 0,-1.17187 0.46875,-3.16406 1.171875,-4.57031 2.8125,-4.33594 12.1875,0 17.8125,-5.27343 5.742187,-5.27344 9.84375,-19.6875 L 68.126953,19.007812 Q 69.298828,15.140625 68.830078,13.5 q -0.46875,-1.757813 -3.164062,-0.820313 -15.117188,5.507813 -19.101563,7.03125 -2.109375,0.703125 -2.8125,-2.695312 -0.585937,-3.398438 2.109375,-4.335938 22.03125,-8.4374998 47.460938,-24.960937 3.867187,-2.34375 5.507812,-2.34375 2.343752,0 3.867192,1.640625 0.70312,0.9375 0.70312,2.226562 0,0.9375002 -0.46875,2.3437502 -3.398437,8.671875 -5.742187,18.7499998 L 69.533203,113.22656 q -2.695312,7.96875 -2.578125,13.24219 0,3.16406 0.9375,5.50781 2.34375,6.44531 13.945313,6.44531 1.875,0 0.585937,4.45313 -1.171875,4.45312 -3.046875,4.45312 z"
           style="font-style:italic;font-weight:600;font-size:240px;font-family:Junicode;-inkscape-font-specification:'Junicode, Semi-Bold Italic'"
           id="path17098" /><path
           d="m 237.22852,-7.9453128 q 0.46875,0 0.58593,0.703125 0,2.109375 -3.63281,10.3125 -5.03906,11.0156248 -6.79687,10.8984378 h -48.63282 q -3.86718,0 -5.74218,3.515625 l -8.20313,18.046875 q -0.9375,2.34375 -0.46875,3.28125 0.46875,0.820312 2.10938,0.585937 6.21093,-0.46875 7.73437,-0.585937 22.03125,0 32.92969,9.492187 11.01562,9.492188 11.01562,24.140625 0,22.265625 -16.875,43.945308 -11.25,14.64844 -27.65625,23.32032 -16.28906,8.55468 -34.45312,8.55468 -28.59375,0 -28.59375,-14.29687 0,-6.44531 5.50781,-10.66406 5.50781,-4.21875 12.07031,-3.98438 5.74219,0 11.71875,8.20313 5.97657,8.08593 12.42188,8.08593 14.64844,0 26.95312,-15.58593 12.42188,-15.58594 12.42188,-30.937503 0,-11.484375 -7.73438,-18.164062 Q 176.29102,64.125 162.93164,64.125 q -7.73437,0 -16.875,2.34375 -5.03906,1.40625 -5.97656,-0.820313 -0.9375,-2.34375 0.9375,-5.15625 l 27.65625,-61.9921873 q 3.16406,-6.4453125 9.84375,-6.4453125 z"
           style="font-style:italic;font-weight:600;font-size:240px;font-family:Junicode;-inkscape-font-specification:'Junicode, Semi-Bold Italic'"
           id="path17100" /></g><g
         aria-label="th"
         transform="matrix(7.5000002,0,0,-7.5000002,-29.842747,2156.0817)"
         id="flowRoot30-1"
         style="font-size:20px;line-height:125%;font-family:Sans;letter-spacing:0px;word-spacing:0px;fill:#707a84;stroke-width:1px"><path
           d="m 12.033246,111.3448 q 0,2.34376 1.145837,3.54168 1.19792,1.14584 3.020843,1.14584 3.802095,0 7.916691,-1.56251 l 1.093754,2.44793 q -6.40627,4.53126 -12.968791,4.53126 -4.1145961,0 -6.5104369,-2.50001 -2.3437574,-2.5 -2.3437574,-6.97918 0,-1.51043 0.2604175,-3.54168 0.312501,-2.08334 5.7291846,-32.60427 h -6.40627 L 3.3873857,73.480103 10.314491,71.448846 17.44993,60.355062 h 3.333343 L 18.856184,71.448846 H 30.054136 L 29.2208,75.82386 H 18.022848 l -5.052099,28.59384 q -0.937503,4.79168 -0.937503,6.9271 z"
           style="font-style:italic;font-size:106.667px;font-family:'Times New Roman';-inkscape-font-specification:'Times New Roman, Italic'"
           id="path17093" /><path
           d="m 44.11668,49.990446 -6.145853,-1.250004 0.416668,-2.343757 h 15.000047 l -5.52085,31.041763 -0.833336,3.958346 q 4.166679,-5.468767 8.906277,-8.333359 4.791682,-2.916676 9.37503,-2.916676 5.260433,0 7.916691,2.864592 2.656258,2.812509 2.656258,8.125025 0,0.729169 -0.208334,2.239591 -0.208334,1.510421 -5.677101,33.437603 l 6.822938,1.25001 -0.416668,2.34375 H 60.731315 l 5.312517,-30.312592 q 1.19792,-6.614604 1.19792,-8.645861 0,-2.343757 -1.250004,-3.802095 -1.250004,-1.458338 -3.958346,-1.458338 -3.906262,0 -8.437526,3.281261 -4.531264,3.229176 -7.44794,7.968774 l -5.781268,32.968851 h -8.593777 z"
           style="font-style:italic;font-size:106.667px;font-family:'Times New Roman';-inkscape-font-specification:'Times New Roman, Italic'"
           id="path17095" /></g><g
         aria-label="Conference"
         transform="matrix(7.9673222,0,0,-6.4999134,-1056.673,1445.862)"
         id="flowRoot4647-3"
         style="font-size:20px;line-height:125%;font-family:Sans;letter-spacing:35.6601px;word-spacing:0px;stroke-width:1px"><path
           d="m 343.45871,209.52735 h 5.03768 q -0.27378,6.16021 -3.44971,9.69206 -3.17593,3.53186 -9.3909,3.53186 -5.99594,0 -9.52779,-4.54487 -3.50448,-4.57224 -3.50448,-12.26566 v -7.36488 q 0,-7.66604 3.55923,-12.2109 3.58661,-4.57225 9.93848,-4.57225 5.80428,0 8.95283,3.44972 3.14856,3.44972 3.42234,9.88372 h -5.03768 q -0.30117,-4.70914 -1.97127,-6.84468 -1.6701,-2.16292 -5.36622,-2.16292 -4.3806,0 -6.434,3.39496 -2.02603,3.39496 -2.02603,9.0076 v 7.41963 q 0,5.22933 1.77962,8.8707 1.807,3.64137 6.21497,3.64137 4.13418,0 5.77691,-2.08078 1.64272,-2.08079 2.02602,-6.84468 z"
           style="font-size:56.0716px;font-family:'Roboto Condensed';-inkscape-font-specification:'Roboto Condensed, Normal';letter-spacing:3.77629px"
           id="path17072" /><path
           d="m 357.3925,205.9955 q 0,-6.92682 3.31283,-10.43129 3.31282,-3.53186 8.10409,-3.53186 4.84604,0 8.15886,3.53186 3.3402,3.50447 3.3402,10.43129 v 2.82 q 0,6.92682 -3.3402,10.43129 -3.31282,3.50448 -8.1041,3.50448 -4.81865,0 -8.15885,-3.50448 -3.31283,-3.50447 -3.31283,-10.43129 z m 4.84603,2.82 q 0,4.90079 1.88913,7.36488 1.88914,2.4367 4.73652,2.4367 6.40662,0 6.59827,-9.254 v -3.36758 q 0,-4.84604 -1.91651,-7.31012 -1.88913,-2.49146 -4.73652,-2.49146 -2.82,0 -4.70913,2.49146 -1.86176,2.46408 -1.86176,7.31012 z"
           style="font-size:56.0716px;font-family:'Roboto Condensed';-inkscape-font-specification:'Roboto Condensed, Normal';letter-spacing:3.77629px"
           id="path17074" /><path
           d="m 400.73103,196.30343 q -1.77961,0 -3.23069,1.20466 -1.42369,1.20467 -2.32719,3.14856 v 21.54704 h -4.84603 v -29.62376 h 4.57225 l 0.13689,3.14855 q 2.82001,-3.69613 7.2006,-3.69613 3.64137,0 5.80429,2.46409 2.16292,2.46408 2.16292,8.29575 v 19.4115 h -4.84604 v -19.46626 q 0,-3.4771 -1.1499,-4.95555 -1.14991,-1.47845 -3.4771,-1.47845 z"
           style="font-size:56.0716px;font-family:'Roboto Condensed';-inkscape-font-specification:'Roboto Condensed, Normal';letter-spacing:3.77629px"
           id="path17076" /><path
           d="m 433.28234,196.4677 h -5.03768 v 25.73599 h -4.84603 V 196.4677 h -3.8604 v -3.88777 h 3.8604 v -3.34021 q 0.0547,-4.68176 2.29981,-7.17322 2.27243,-2.49146 6.18759,-2.49146 1.45107,0 2.92952,0.43806 l -0.21903,4.13418 q -0.9035,-0.24641 -2.21767,-0.24641 -4.05205,0 -4.13419,5.33885 v 3.34021 h 5.03768 z"
           style="font-size:56.0716px;font-family:'Roboto Condensed';-inkscape-font-specification:'Roboto Condensed, Normal';letter-spacing:3.77629px"
           id="path17078" /><path
           d="m 462.32919,218.28854 q -1.20466,1.69748 -3.50448,3.09379 -2.27243,1.36894 -6.10545,1.36894 -5.31147,0 -8.40526,-3.17593 -3.0938,-3.20331 -3.12118,-9.9111 v -3.47709 q 0,-7.83032 3.39496,-10.97887 3.39496,-3.17593 7.58391,-3.17593 5.55787,0 7.9672,3.58661 2.40933,3.58661 2.40933,10.37654 v 2.82 h -16.50937 v 0.71185 q 0,4.73652 1.77962,6.92681 1.807,2.16292 5.17458,2.16292 2.4367,0 3.99729,-0.93088 1.58796,-0.95825 2.79263,-2.4367 z m -10.1575,-22.09462 q -2.51885,0 -4.18895,1.75223 -1.6701,1.72486 -1.91651,6.73517 h 11.63596 v -0.68447 q -0.19165,-3.42234 -1.2868,-5.61264 -1.06777,-2.19029 -4.2437,-2.19029 z"
           style="font-size:56.0716px;font-family:'Roboto Condensed';-inkscape-font-specification:'Roboto Condensed, Normal';letter-spacing:3.77629px"
           id="path17080" /><path
           d="m 482.23153,196.90576 q -3.7235,0 -5.20195,4.05205 v 21.24588 h -4.84604 v -29.62376 h 4.68176 l 0.10952,2.98428 q 1.94389,-3.53186 5.50312,-3.53186 1.2868,0 1.91651,0.3833 l 0.0274,4.70914 q -1.06777,-0.21903 -2.1903,-0.21903 z"
           style="font-size:56.0716px;font-family:'Roboto Condensed';-inkscape-font-specification:'Roboto Condensed, Normal';letter-spacing:3.77629px"
           id="path17082" /><path
           d="m 512.72946,218.28854 q -1.20467,1.69748 -3.50448,3.09379 -2.27243,1.36894 -6.10545,1.36894 -5.31147,0 -8.40527,-3.17593 -3.09379,-3.20331 -3.12117,-9.9111 v -3.47709 q 0,-7.83032 3.39496,-10.97887 3.39496,-3.17593 7.5839,-3.17593 5.55788,0 7.96721,3.58661 2.40933,3.58661 2.40933,10.37654 v 2.82 h -16.50937 v 0.71185 q 0,4.73652 1.77962,6.92681 1.80699,2.16292 5.17458,2.16292 2.4367,0 3.99729,-0.93088 1.58796,-0.95825 2.79263,-2.4367 z m -10.15751,-22.09462 q -2.51884,0 -4.18894,1.75223 -1.6701,1.72486 -1.91651,6.73517 h 11.63595 v -0.68447 q -0.19165,-3.42234 -1.28679,-5.61264 -1.06777,-2.19029 -4.24371,-2.19029 z"
           style="font-size:56.0716px;font-family:'Roboto Condensed';-inkscape-font-specification:'Roboto Condensed, Normal';letter-spacing:3.77629px"
           id="path17084" /><path
           d="m 532.98772,196.30343 q -1.77961,0 -3.23068,1.20466 -1.4237,1.20467 -2.3272,3.14856 v 21.54704 h -4.84603 v -29.62376 h 4.57225 l 0.13689,3.14855 q 2.82001,-3.69613 7.2006,-3.69613 3.64137,0 5.80429,2.46409 2.16292,2.46408 2.16292,8.29575 v 19.4115 h -4.84603 v -19.46626 q 0,-3.4771 -1.14991,-4.95555 -1.14991,-1.47845 -3.4771,-1.47845 z"
           style="font-size:56.0716px;font-family:'Roboto Condensed';-inkscape-font-specification:'Roboto Condensed, Normal';letter-spacing:3.77629px"
           id="path17086" /><path
           d="m 563.7868,218.61708 q 2.16292,0 3.72351,-1.34156 1.56058,-1.36893 1.75224,-4.43535 h 4.54486 q -0.16427,4.46273 -3.09379,7.2006 -2.92952,2.7105 -6.92682,2.7105 -5.72215,0 -8.46002,-3.53186 -2.73787,-3.55923 -2.79263,-9.91109 v -3.58661 q 0,-6.46138 2.73787,-10.07537 2.76525,-3.61399 8.51478,-3.61399 4.51749,0 7.17323,2.84739 2.68311,2.82001 2.84738,7.88507 h -4.54486 q -0.38331,-6.57089 -5.47575,-6.57089 -3.83302,0 -5.11982,2.60097 -1.28679,2.60098 -1.28679,6.92682 v 3.3402 q 0,4.35322 1.25942,6.95419 1.2868,2.60098 5.14719,2.60098 z"
           style="font-size:56.0716px;font-family:'Roboto Condensed';-inkscape-font-specification:'Roboto Condensed, Normal';letter-spacing:3.77629px"
           id="path17088" /><path
           d="m 603.40182,218.28854 q -1.20466,1.69748 -3.50447,3.09379 -2.27244,1.36894 -6.10546,1.36894 -5.31147,0 -8.40526,-3.17593 -3.0938,-3.20331 -3.12118,-9.9111 v -3.47709 q 0,-7.83032 3.39496,-10.97887 3.39497,-3.17593 7.58391,-3.17593 5.55788,0 7.9672,3.58661 2.40933,3.58661 2.40933,10.37654 v 2.82 h -16.50936 v 0.71185 q 0,4.73652 1.77961,6.92681 1.807,2.16292 5.17458,2.16292 2.4367,0 3.99729,-0.93088 1.58797,-0.95825 2.79263,-2.4367 z m -10.1575,-22.09462 q -2.51884,0 -4.18894,1.75223 -1.67011,1.72486 -1.91651,6.73517 h 11.63595 v -0.68447 q -0.19165,-3.42234 -1.2868,-5.61264 -1.06777,-2.19029 -4.2437,-2.19029 z"
           style="font-size:56.0716px;font-family:'Roboto Condensed';-inkscape-font-specification:'Roboto Condensed, Normal';letter-spacing:3.77629px"
           id="path17090" /></g><path
         inkscape:connector-curvature="0"
         id="path340-3"
         style="fill:#707a84;fill-opacity:1;fill-rule:nonzero;stroke:none;stroke-width:0.99999994"
         d="M 638.06306,360.75 325.79306,8.3789 h 273.301 l 188.972,231.1521 c -59.535,27.449 -110.875,69.34 -150.003,121.219 z M 2888.34,1782.25 c -127.6,-4.67 -270.77,-143.17 -270.77,-141.62 1.56,79.37 -57.57,155.62 -166.5099,138.5 C 2342.15,1762.01 2205.2,1625.07 2203.65,1625.07 c 4.67,57.58 -33.52,125.25 -93.37,147.83 -85.43,32.24 -212.15,8.25 -376.06,-173.24 -128.9299,-142.76 -456.43,-516.18 -579.78,-656.117 43.66,-25.875 81.86,-59.832 112.65,-100.008 l 391.92,484.325 c 0,0 227.09,297.77 351.68,326.78 103.13,24.01 119.2,-74.6 80.91,-166.51 -77.89,-186.93 -269.21,-497.95 -269.21,-497.95 0,0 267.66,347.01 312.78,404.59 45.13,57.57 270.77,340.79 370.36,241.2 97.0601,-97.06 -194.51,-516.63 -194.51,-516.63 l 149.39,192.95 c 0,0 303.44,398.37 435.71,348.57 132.28,-49.79 -85.5999,-413.93 -85.5999,-412.37 0,0 130.4899,99.46 200.7499,312.78 32.1301,97.55 4.67,225.64 -122.93,220.98" /></g></g></svg>
