<?xml version="1.0" encoding="UTF-8" standalone="no"?>
<svg
   xmlns:dc="http://purl.org/dc/elements/1.1/"
   xmlns:cc="http://creativecommons.org/ns#"
   xmlns:rdf="http://www.w3.org/1999/02/22-rdf-syntax-ns#"
   xmlns:svg="http://www.w3.org/2000/svg"
   xmlns="http://www.w3.org/2000/svg"
   xmlns:sodipodi="http://sodipodi.sourceforge.net/DTD/sodipodi-0.dtd"
   xmlns:inkscape="http://www.inkscape.org/namespaces/inkscape"
   viewBox="0 0 728.47693 241.39973"
   height="241.39973"
   width="728.47693"
   xml:space="preserve"
   id="svg304"
   version="1.1"
   sodipodi:docname="ConferenceLogo.svg"
   inkscape:version="0.92.5 (2060ec1f9f, 2020-04-08)"
   inkscape:export-filename="/home/martin/dev/ModelicaConference2021/images/ConferenceLogo.png"
   inkscape:export-xdpi="441"
   inkscape:export-ydpi="441"><sodipodi:namedview
     pagecolor="#ffffff"
     bordercolor="#666666"
     borderopacity="1"
     objecttolerance="10"
     gridtolerance="10"
     guidetolerance="10"
     inkscape:pageopacity="0"
     inkscape:pageshadow="2"
     inkscape:window-width="1920"
     inkscape:window-height="1015"
     id="namedview28"
     showgrid="false"
     fit-margin-left="0"
     fit-margin-top="0"
     fit-margin-right="0"
     fit-margin-bottom="0"
     inkscape:zoom="1.165216"
     inkscape:cx="200.32211"
     inkscape:cy="70.360179"
     inkscape:window-x="1920"
     inkscape:window-y="420"
     inkscape:window-maximized="1"
     inkscape:current-layer="g314" /><metadata
     id="metadata310"><rdf:RDF><cc:Work
         rdf:about=""><dc:format>image/svg+xml</dc:format><dc:type
           rdf:resource="http://purl.org/dc/dcmitype/StillImage" /><dc:title></dc:title></cc:Work></rdf:RDF></metadata><defs
     id="defs308" /><g
     transform="matrix(1.3333333,0,0,-1.3333333,227.84896,241.13281)"
     id="g312"><g
       transform="scale(0.1)"
       id="g314"><path
         id="path338"
         style="fill:#de1d31;fill-opacity:1;fill-rule:nonzero;stroke:none"
         d="m 2600.46,1101.13 c 0,56.46 45.77,102.23 102.22,102.23 56.47,0 102.24,-45.77 102.24,-102.23 0,-56.46 -45.77,-102.224 -102.24,-102.224 -56.45,0 -102.22,45.764 -102.22,102.224"
         inkscape:connector-curvature="0"
         inkscape:export-xdpi="441"
         inkscape:export-ydpi="441" /><path
         id="path342"
         style="fill:#1f262f;fill-opacity:1;fill-rule:nonzero;stroke:none"
         d="m 0.0507813,792.637 c 0,85.75 69.1015187,158.187 172.3442187,158.187 54.121,0 99.914,-19.984 129.882,-50.777 30.813,30.793 75.762,50.777 129.887,50.777 104.082,0 169.856,-72.437 169.856,-158.187 l -0.051,-376.778 h -94.926 l 0.051,362.621 c 0,59.106 -29.957,91.579 -76.582,91.579 -45.809,0 -81.61,-32.473 -81.61,-91.579 l -0.047,-362.621 h -95.742 l 0.047,362.621 c 0,59.106 -35.797,91.579 -82.422,91.579 -45.808,0 -75.781,-32.473 -75.781,-91.579 L 94.9102,415.859 H 0.00390625 L 0.0507813,792.637"
         inkscape:connector-curvature="0"
         inkscape:export-xdpi="441"
         inkscape:export-ydpi="441" /><path
         id="path344"
         style="fill:#1f262f;fill-opacity:1;fill-rule:nonzero;stroke:none"
         d="m 1485.39,500.398 c 54.13,0 97.42,43.274 97.42,97.403 0,54.121 -43.29,97.41 -97.42,97.41 -54.1,0 -97.39,-43.289 -97.39,-97.41 0,-54.129 43.29,-97.403 97.39,-97.403 z m 96.6,441.27 h 95.75 V 601.129 c 0,-105.719 -85.77,-192.309 -192.35,-192.309 -105.73,0 -191.49,86.59 -191.49,192.309 0,106.57 80.77,192.348 184.83,192.348 44.97,0 81.61,-20.817 103.26,-39.149 v 187.34"
         inkscape:connector-curvature="0"
         inkscape:export-xdpi="441"
         inkscape:export-ydpi="441" /><path
         id="path346"
         style="fill:#1f262f;fill-opacity:1;fill-rule:nonzero;stroke:none"
         d="m 1051.74,599.891 c 0,55.371 -37.44,102.531 -98.06,102.531 -60.617,0 -98.02,-47.16 -98.02,-102.531 0,-55.371 37.403,-102.539 98.02,-102.539 60.62,0 98.06,47.168 98.06,102.539 z m 91.3,0 c 0,-104.032 -83.83,-186.352 -189.36,-186.352 -105.528,0 -189.332,82.32 -189.332,186.352 0,104.757 83.804,186.339 189.332,186.339 105.53,0 189.36,-81.582 189.36,-186.339"
         inkscape:connector-curvature="0"
         inkscape:export-xdpi="441"
         inkscape:export-ydpi="441" /><path
         id="path348"
         style="fill:#1f262f;fill-opacity:1;fill-rule:nonzero;stroke:none"
         d="m 2094.85,632.801 c -1.53,30.699 -29.96,71.847 -89.08,71.847 -57.64,0 -83.81,-40.386 -86.8,-71.847 z m 89.79,-31.41 c 0,-6.75 0,-20.2 -0.74,-33.692 h -264.93 c 6.71,-31.418 43.38,-71.84 99.51,-71.84 62.12,0 97.3,35.942 97.3,35.942 l 44.9,-67.371 c 0,0 -56.13,-50.891 -142.2,-50.891 -107.75,0 -190.82,82.32 -190.82,186.352 0,104.039 75.6,186.339 178.11,186.339 97.28,0 178.87,-75.57 178.87,-184.839"
         inkscape:connector-curvature="0"
         inkscape:export-xdpi="441"
         inkscape:export-ydpi="441" /><path
         id="path350"
         style="fill:#1f262f;fill-opacity:1;fill-rule:nonzero;stroke:none"
         d="m 2360.79,941.668 h 93.4 V 415.859 h -93.4 v 525.809"
         inkscape:connector-curvature="0"
         inkscape:export-xdpi="441"
         inkscape:export-ydpi="441" /><path
         id="path352"
         style="fill:#1f262f;fill-opacity:1;fill-rule:nonzero;stroke:none"
         d="m 3181.32,540.762 59.12,-59.883 c 0,0 -50.89,-67.34 -146.68,-67.34 -106.26,0 -190.83,82.32 -190.83,186.352 0,104.757 84.57,186.339 190.83,186.339 95.06,0 145.18,-65.871 145.18,-65.871 l -62.12,-55.371 c 0,0 -29.16,37.434 -83.06,37.434 -60.63,0 -99.52,-47.16 -99.52,-102.531 0,-55.371 38.89,-102.539 99.52,-102.539 60.61,0 87.56,43.41 87.56,43.41"
         inkscape:connector-curvature="0"
         inkscape:export-xdpi="441"
         inkscape:export-ydpi="441" /><path
         id="path354"
         style="fill:#1f262f;fill-opacity:1;fill-rule:nonzero;stroke:none"
         d="m 2653.74,785.938 h 94.17 V 415.859 h -94.17 v 370.079"
         inkscape:connector-curvature="0"
         inkscape:export-xdpi="441"
         inkscape:export-ydpi="441" /><path
         id="path356"
         style="fill:#1f262f;fill-opacity:1;fill-rule:nonzero;stroke:none"
         d="m 3562.5,497.352 c -60.62,0 -98.02,47.168 -98.02,102.539 0,55.371 37.4,102.531 98.02,102.531 60.62,0 98.05,-47.16 98.05,-102.531 0,-55.371 -37.43,-102.539 -98.05,-102.539 z m 98.05,288.586 v -26.176 c -28.53,16.738 -61.96,26.468 -98.05,26.468 -105.53,0 -189.33,-81.582 -189.33,-186.339 0,-104.032 83.8,-186.352 189.33,-186.352 36.09,0 69.52,9.82 98.05,26.652 v -24.57 h 94.16 v 370.317 h -94.16"
         inkscape:connector-curvature="0"
         inkscape:export-xdpi="441"
         inkscape:export-ydpi="441" /><g
         aria-label="14"
         transform="matrix(7.5000002,0,0,-7.5000002,-1798.8233,1509.7658)"
         style="font-style:normal;font-weight:normal;font-size:20px;line-height:125%;font-family:Sans;letter-spacing:0px;word-spacing:0px;fill:#707a84;fill-opacity:1;stroke:none;stroke-width:1px;stroke-linecap:butt;stroke-linejoin:miter;stroke-opacity:1"
         id="flowRoot30"><path
           d="m 79.376953,147.32812 q -9.609375,-0.9375 -32.8125,-0.9375 -24.023437,0 -33.632812,0.9375 -0.9375,0 -0.9375,-1.40625 0,-1.17187 0.46875,-3.16406 1.171875,-4.57031 2.8125,-4.33594 12.1875,0 17.8125,-5.27343 5.742187,-5.27344 9.84375,-19.6875 L 68.126953,19.007812 Q 69.298828,15.140625 68.830078,13.5 q -0.46875,-1.757813 -3.164062,-0.820313 -15.117188,5.507813 -19.101563,7.03125 -2.109375,0.703125 -2.8125,-2.695312 -0.585937,-3.398438 2.109375,-4.335938 22.03125,-8.4374998 47.460938,-24.960937 3.867187,-2.34375 5.507812,-2.34375 2.343752,0 3.867192,1.640625 0.70312,0.9375 0.70312,2.226562 0,0.9375002 -0.46875,2.3437502 -3.398437,8.671875 -5.742187,18.7499998 L 69.533203,113.22656 q -2.695312,7.96875 -2.578125,13.24219 0,3.16406 0.9375,5.50781 2.34375,6.44531 13.945313,6.44531 1.875,0 0.585937,4.45313 -1.171875,4.45312 -3.046875,4.45312 z"
           style="font-style:italic;font-variant:normal;font-weight:600;font-stretch:normal;font-size:240px;font-family:Junicode;-inkscape-font-specification:'Junicode, Semi-Bold Italic';font-variant-ligatures:normal;font-variant-caps:normal;font-variant-numeric:normal;font-feature-settings:normal;text-align:start;writing-mode:lr-tb;text-anchor:start;fill:#707a84;fill-opacity:1"
           id="path54" /><path
           d="m 206.29102,87.328125 h 14.41406 q 0.70312,0 0.70312,1.757812 0,1.875 -0.9375,5.976563 -1.875,7.73437 -3.86718,7.85156 h -14.41407 l -6.91406,25.19531 q -0.70312,2.69532 -0.70312,4.57032 0,2.69531 1.40625,3.86718 2.34375,1.875 8.67187,1.875 1.875,0 0.70313,4.45313 -1.17188,4.45312 -3.16407,4.45312 -9.60937,-0.9375 -27.53906,-0.9375 -18.04687,0 -27.65625,0.9375 -1.875,0 -0.70312,-4.45312 1.17187,-4.45313 3.16406,-4.45313 8.67187,0 13.00781,-2.22656 4.45313,-2.22656 6.21094,-8.08594 l 6.91406,-25.19531 h -54.02344 -0.46875 q -8.4375,0 -8.32031,-5.03906 0,-5.976563 10.3125,-16.054688 L 169.14258,36.9375 q 32.69531,-31.8750003 53.55469,-56.132813 2.69531,-2.109375 5.74218,-2.226562 1.875,0 3.98438,1.054687 3.86719,1.640625 4.10156,4.804688 0,1.171875 -0.70312,2.578125 l -97.61719,95.507812 q -4.80469,4.804688 -0.23438,4.804688 h 41.71875 l 12.42188,-46.757813 q 0.70312,-2.695312 14.0625,-2.695312 13.35937,0 12.65625,2.695312 z"
           style="font-style:italic;font-variant:normal;font-weight:600;font-stretch:normal;font-size:240px;font-family:Junicode;-inkscape-font-specification:'Junicode, Semi-Bold Italic';font-variant-ligatures:normal;font-variant-caps:normal;font-variant-numeric:normal;font-feature-settings:normal;text-align:start;writing-mode:lr-tb;text-anchor:start;fill:#707a84;fill-opacity:1"
           id="path56" /></g><g
         aria-label="th"
         transform="matrix(7.5000002,0,0,-7.5000002,-29.842747,2156.0817)"
         style="font-style:normal;font-weight:normal;font-size:20px;line-height:125%;font-family:Sans;letter-spacing:0px;word-spacing:0px;fill:#707a84;fill-opacity:1;stroke:none;stroke-width:1px;stroke-linecap:butt;stroke-linejoin:miter;stroke-opacity:1"
         id="flowRoot30-1"><path
           d="m 25.991536,60.355162 -4.0625,14.166666 h 8.177083 l -0.885417,3.28125 h -8.124999 l -8.958334,30.729162 q -1.458333,4.94792 -1.458333,6.40625 0,0.88542 0.416667,1.35417 0.416666,0.46875 0.989583,0.46875 1.302083,0 3.4375,-1.82292 1.25,-1.04166 5.572917,-6.40625 l 1.71875,1.30209 q -4.791667,6.97916 -9.0625,9.84375 -2.916667,1.97916 -5.8854168,1.97916 -2.2916666,0 -3.7499999,-1.40625 -1.4583333,-1.45833 -1.4583333,-3.69791 0,-2.8125 1.6666666,-8.59375 L 13.022786,77.803078 H 5.158203 l 0.5208333,-2.03125 q 5.7291667,-1.5625 9.5312497,-4.635416 3.802083,-3.125 8.489583,-10.78125 z"
           style="font-style:italic;font-variant:normal;font-weight:normal;font-stretch:normal;font-size:106.66666412px;font-family:'Times New Roman';-inkscape-font-specification:'Times New Roman, Italic';font-variant-ligatures:normal;font-variant-caps:normal;font-variant-numeric:normal;font-feature-settings:normal;text-align:start;writing-mode:lr-tb;text-anchor:start;fill:#707a84;fill-opacity:1"
           id="path59" /><path
           d="M 59.220702,46.344746 44.585285,96.917661 q 9.479167,-14.270833 14.791667,-18.958333 5.3125,-4.6875 10.156249,-4.6875 2.5,0 4.166667,1.71875 1.666667,1.71875 1.666667,4.583333 0,3.4375 -1.458334,8.333334 l -6.354166,21.822915 q -1.197917,3.95833 -1.197917,4.375 0,0.72917 0.416667,1.19792 0.46875,0.46875 1.041667,0.46875 0.677083,0 1.5625,-0.67709 2.968749,-2.29166 5.885416,-6.35416 l 1.614583,0.98958 q -1.770833,2.76042 -4.947916,6.09375 -3.125,3.28125 -5.416667,4.58333 -2.239583,1.25 -4.010416,1.25 -1.927084,0 -3.177084,-1.25 -1.197916,-1.19791 -1.197916,-3.125 0,-2.29166 1.822916,-8.54166 l 5.989584,-20.833335 q 1.145833,-3.90625 1.145833,-6.145834 0,-1.041666 -0.677083,-1.666666 -0.625,-0.625 -1.666667,-0.625 -1.510417,0 -3.4375,1.145833 -3.541667,2.1875 -8.177083,8.125 -1.25,1.614583 -8.333333,13.020832 -2.1875,3.64583 -3.59375,7.96875 l -3.333333,10.67708 h -7.8125 l 17.135416,-59.583328 1.822917,-6.458333 q 0,-1.354167 -1.145834,-2.395834 -1.09375,-1.041666 -2.708333,-1.041666 -0.9375,0 -2.864583,0.3125 l -1.09375,0.15625 v -2.03125 z"
           style="font-style:italic;font-variant:normal;font-weight:normal;font-stretch:normal;font-size:106.66666412px;font-family:'Times New Roman';-inkscape-font-specification:'Times New Roman, Italic';font-variant-ligatures:normal;font-variant-caps:normal;font-variant-numeric:normal;font-feature-settings:normal;text-align:start;writing-mode:lr-tb;text-anchor:start;fill:#707a84;fill-opacity:1"
           id="path61" /></g><g
         aria-label="Conference"
         transform="matrix(7.9673222,0,0,-6.4999134,-1056.673,1445.862)"
         style="font-style:normal;font-weight:normal;font-size:20px;line-height:125%;font-family:Sans;letter-spacing:35.6600647px;word-spacing:0px;fill:#000000;fill-opacity:1;stroke:none;stroke-width:1px;stroke-linecap:butt;stroke-linejoin:miter;stroke-opacity:1"
         id="flowRoot4647-3"><path
           d="m 343.45872,209.52735 h 5.03768 q -0.27379,6.16021 -3.44972,9.69206 -3.17593,3.53186 -9.3909,3.53186 -5.99594,0 -9.52779,-4.54487 -3.50448,-4.57224 -3.50448,-12.26566 v -7.36488 q 0,-7.66604 3.55923,-12.21091 3.58662,-4.57224 9.93848,-4.57224 5.80429,0 8.95284,3.44972 3.14855,3.44971 3.42234,9.88371 h -5.03768 q -0.30117,-4.70914 -1.97127,-6.84468 -1.6701,-2.16291 -5.36623,-2.16291 -4.3806,0 -6.434,3.39496 -2.02602,3.39496 -2.02602,9.00759 v 7.41964 q 0,5.22933 1.77961,8.8707 1.807,3.64137 6.21497,3.64137 4.13419,0 5.77691,-2.08078 1.64272,-2.08078 2.02603,-6.84468 z"
           style="font-style:normal;font-variant:normal;font-weight:normal;font-stretch:normal;font-size:56.07161331px;font-family:'Roboto Condensed';-inkscape-font-specification:'Roboto Condensed, Normal';font-variant-ligatures:normal;font-variant-caps:normal;font-variant-numeric:normal;font-feature-settings:normal;text-align:start;letter-spacing:3.77628827px;writing-mode:lr-tb;text-anchor:start"
           id="path64" /><path
           d="m 357.39251,205.99549 q 0,-6.92681 3.31282,-10.43129 3.31283,-3.53185 8.1041,-3.53185 4.84604,0 8.15886,3.53185 3.34021,3.50448 3.34021,10.43129 v 2.82001 q 0,6.92682 -3.34021,10.43129 -3.31282,3.50448 -8.1041,3.50448 -4.81865,0 -8.15886,-3.50448 -3.31282,-3.50447 -3.31282,-10.43129 z m 4.84603,2.82001 q 0,4.90079 1.88913,7.36488 1.88914,2.4367 4.73652,2.4367 6.40662,0 6.59827,-9.254 v -3.36759 q 0,-4.84603 -1.91651,-7.31011 -1.88913,-2.49147 -4.73652,-2.49147 -2.82,0 -4.70913,2.49147 -1.86176,2.46408 -1.86176,7.31011 z"
           style="font-style:normal;font-variant:normal;font-weight:normal;font-stretch:normal;font-size:56.07161331px;font-family:'Roboto Condensed';-inkscape-font-specification:'Roboto Condensed, Normal';font-variant-ligatures:normal;font-variant-caps:normal;font-variant-numeric:normal;font-feature-settings:normal;text-align:start;letter-spacing:3.77628827px;writing-mode:lr-tb;text-anchor:start"
           id="path66" /><path
           d="m 400.73104,196.30343 q -1.77961,0 -3.23069,1.20466 -1.42369,1.20467 -2.32719,3.14855 v 21.54705 h -4.84603 v -29.62377 h 4.57225 l 0.13689,3.14856 q 2.82001,-3.69613 7.2006,-3.69613 3.64137,0 5.80429,2.46408 2.16292,2.46409 2.16292,8.29575 v 19.41151 h -4.84603 v -19.46626 q 0,-3.4771 -1.14991,-4.95555 -1.14991,-1.47845 -3.4771,-1.47845 z"
           style="font-style:normal;font-variant:normal;font-weight:normal;font-stretch:normal;font-size:56.07161331px;font-family:'Roboto Condensed';-inkscape-font-specification:'Roboto Condensed, Normal';font-variant-ligatures:normal;font-variant-caps:normal;font-variant-numeric:normal;font-feature-settings:normal;text-align:start;letter-spacing:3.77628827px;writing-mode:lr-tb;text-anchor:start"
           id="path68" /><path
           d="m 433.28236,196.4677 h -5.03768 v 25.73599 h -4.84604 V 196.4677 h -3.8604 v -3.88778 h 3.8604 v -3.3402 q 0.0548,-4.68176 2.29982,-7.17322 2.27243,-2.49147 6.18759,-2.49147 1.45107,0 2.92952,0.43806 l -0.21903,4.13419 q -0.9035,-0.24641 -2.21768,-0.24641 -4.05205,0 -4.13418,5.33885 v 3.3402 h 5.03768 z"
           style="font-style:normal;font-variant:normal;font-weight:normal;font-stretch:normal;font-size:56.07161331px;font-family:'Roboto Condensed';-inkscape-font-specification:'Roboto Condensed, Normal';font-variant-ligatures:normal;font-variant-caps:normal;font-variant-numeric:normal;font-feature-settings:normal;text-align:start;letter-spacing:3.77628827px;writing-mode:lr-tb;text-anchor:start"
           id="path70" /><path
           d="m 462.32921,218.28854 q -1.20467,1.69748 -3.50448,3.09379 -2.27243,1.36894 -6.10545,1.36894 -5.31147,0 -8.40527,-3.17593 -3.09379,-3.20331 -3.12117,-9.9111 v -3.47709 q 0,-7.83032 3.39496,-10.97887 3.39496,-3.17593 7.5839,-3.17593 5.55788,0 7.96721,3.58661 2.40933,3.58661 2.40933,10.37653 v 2.82001 h -16.50937 v 0.71185 q 0,4.73652 1.77962,6.92681 1.80699,2.16292 5.17458,2.16292 2.4367,0 3.99729,-0.93087 1.58796,-0.95826 2.79263,-2.43671 z M 452.1717,196.19391 q -2.51884,0 -4.18894,1.75224 -1.6701,1.72486 -1.91651,6.73517 h 11.63596 v -0.68447 q -0.19166,-3.42234 -1.2868,-5.61264 -1.06777,-2.1903 -4.24371,-2.1903 z"
           style="font-style:normal;font-variant:normal;font-weight:normal;font-stretch:normal;font-size:56.07161331px;font-family:'Roboto Condensed';-inkscape-font-specification:'Roboto Condensed, Normal';font-variant-ligatures:normal;font-variant-caps:normal;font-variant-numeric:normal;font-feature-settings:normal;text-align:start;letter-spacing:3.77628827px;writing-mode:lr-tb;text-anchor:start"
           id="path72" /><path
           d="m 482.23156,196.90576 q -3.7235,0 -5.20195,4.05205 v 21.24588 h -4.84603 v -29.62377 h 4.68176 l 0.10951,2.98428 q 1.94389,-3.53185 5.50312,-3.53185 1.2868,0 1.91651,0.3833 l 0.0274,4.70914 q -1.06777,-0.21903 -2.1903,-0.21903 z"
           style="font-style:normal;font-variant:normal;font-weight:normal;font-stretch:normal;font-size:56.07161331px;font-family:'Roboto Condensed';-inkscape-font-specification:'Roboto Condensed, Normal';font-variant-ligatures:normal;font-variant-caps:normal;font-variant-numeric:normal;font-feature-settings:normal;text-align:start;letter-spacing:3.77628827px;writing-mode:lr-tb;text-anchor:start"
           id="path74" /><path
           d="m 512.72948,218.28854 q -1.20467,1.69748 -3.50448,3.09379 -2.27243,1.36894 -6.10545,1.36894 -5.31147,0 -8.40527,-3.17593 -3.09379,-3.20331 -3.12117,-9.9111 v -3.47709 q 0,-7.83032 3.39496,-10.97887 3.39496,-3.17593 7.5839,-3.17593 5.55788,0 7.96721,3.58661 2.40933,3.58661 2.40933,10.37653 v 2.82001 h -16.50937 v 0.71185 q 0,4.73652 1.77962,6.92681 1.80699,2.16292 5.17457,2.16292 2.43671,0 3.9973,-0.93087 1.58796,-0.95826 2.79263,-2.43671 z m -10.15751,-22.09463 q -2.51884,0 -4.18894,1.75224 -1.6701,1.72486 -1.91651,6.73517 h 11.63595 v -0.68447 q -0.19165,-3.42234 -1.2868,-5.61264 -1.06777,-2.1903 -4.2437,-2.1903 z"
           style="font-style:normal;font-variant:normal;font-weight:normal;font-stretch:normal;font-size:56.07161331px;font-family:'Roboto Condensed';-inkscape-font-specification:'Roboto Condensed, Normal';font-variant-ligatures:normal;font-variant-caps:normal;font-variant-numeric:normal;font-feature-settings:normal;text-align:start;letter-spacing:3.77628827px;writing-mode:lr-tb;text-anchor:start"
           id="path76" /><path
           d="m 532.98776,196.30343 q -1.77962,0 -3.23069,1.20466 -1.4237,1.20467 -2.32719,3.14855 v 21.54705 h -4.84604 v -29.62377 h 4.57225 l 0.13689,3.14856 q 2.82001,-3.69613 7.20061,-3.69613 3.64137,0 5.80428,2.46408 2.16292,2.46409 2.16292,8.29575 v 19.41151 h -4.84603 v -19.46626 q 0,-3.4771 -1.14991,-4.95555 -1.1499,-1.47845 -3.47709,-1.47845 z"
           style="font-style:normal;font-variant:normal;font-weight:normal;font-stretch:normal;font-size:56.07161331px;font-family:'Roboto Condensed';-inkscape-font-specification:'Roboto Condensed, Normal';font-variant-ligatures:normal;font-variant-caps:normal;font-variant-numeric:normal;font-feature-settings:normal;text-align:start;letter-spacing:3.77628827px;writing-mode:lr-tb;text-anchor:start"
           id="path78" /><path
           d="m 563.78684,218.61708 q 2.16292,0 3.7235,-1.34155 1.56059,-1.36894 1.75224,-4.43536 h 4.54487 q -0.16427,4.46273 -3.0938,7.20061 -2.92952,2.71049 -6.92681,2.71049 -5.72215,0 -8.46003,-3.53186 -2.73787,-3.55923 -2.79263,-9.91109 v -3.58661 q 0,-6.46138 2.73788,-10.07537 2.76525,-3.61399 8.51478,-3.61399 4.51749,0 7.17322,2.84738 2.68312,2.82001 2.84739,7.88508 h -4.54487 q -0.3833,-6.5709 -5.47574,-6.5709 -3.83302,0 -5.11982,2.60098 -1.2868,2.60098 -1.2868,6.92682 v 3.3402 q 0,4.35322 1.25942,6.95419 1.2868,2.60098 5.1472,2.60098 z"
           style="font-style:normal;font-variant:normal;font-weight:normal;font-stretch:normal;font-size:56.07161331px;font-family:'Roboto Condensed';-inkscape-font-specification:'Roboto Condensed, Normal';font-variant-ligatures:normal;font-variant-caps:normal;font-variant-numeric:normal;font-feature-settings:normal;text-align:start;letter-spacing:3.77628827px;writing-mode:lr-tb;text-anchor:start"
           id="path80" /><path
           d="m 603.40186,218.28854 q -1.20467,1.69748 -3.50448,3.09379 -2.27243,1.36894 -6.10545,1.36894 -5.31148,0 -8.40527,-3.17593 -3.0938,-3.20331 -3.12117,-9.9111 v -3.47709 q 0,-7.83032 3.39496,-10.97887 3.39496,-3.17593 7.5839,-3.17593 5.55788,0 7.96721,3.58661 2.40933,3.58661 2.40933,10.37653 v 2.82001 h -16.50937 v 0.71185 q 0,4.73652 1.77962,6.92681 1.80699,2.16292 5.17457,2.16292 2.43671,0 3.9973,-0.93087 1.58796,-0.95826 2.79262,-2.43671 z m -10.15751,-22.09463 q -2.51884,0 -4.18894,1.75224 -1.6701,1.72486 -1.91651,6.73517 h 11.63595 v -0.68447 q -0.19165,-3.42234 -1.2868,-5.61264 -1.06777,-2.1903 -4.2437,-2.1903 z"
           style="font-style:normal;font-variant:normal;font-weight:normal;font-stretch:normal;font-size:56.07161331px;font-family:'Roboto Condensed';-inkscape-font-specification:'Roboto Condensed, Normal';font-variant-ligatures:normal;font-variant-caps:normal;font-variant-numeric:normal;font-feature-settings:normal;text-align:start;letter-spacing:3.77628827px;writing-mode:lr-tb;text-anchor:start"
           id="path82" /></g><path
         inkscape:connector-curvature="0"
         id="path340-3"
         style="fill:#707a84;fill-opacity:1;fill-rule:nonzero;stroke:none;stroke-width:0.99999994"
         d="M 638.06306,360.75 325.79306,8.3789 h 273.301 l 188.972,231.1521 c -59.535,27.449 -110.875,69.34 -150.003,121.219 z M 2888.34,1782.25 c -127.6,-4.67 -270.77,-143.17 -270.77,-141.62 1.56,79.37 -57.57,155.62 -166.5099,138.5 C 2342.15,1762.01 2205.2,1625.07 2203.65,1625.07 c 4.67,57.58 -33.52,125.25 -93.37,147.83 -85.43,32.24 -212.15,8.25 -376.06,-173.24 -128.9299,-142.76 -456.43,-516.18 -579.78,-656.117 43.66,-25.875 81.86,-59.832 112.65,-100.008 l 391.92,484.325 c 0,0 227.09,297.77 351.68,326.78 103.13,24.01 119.2,-74.6 80.91,-166.51 -77.89,-186.93 -269.21,-497.95 -269.21,-497.95 0,0 267.66,347.01 312.78,404.59 45.13,57.57 270.77,340.79 370.36,241.2 97.0601,-97.06 -194.51,-516.63 -194.51,-516.63 l 149.39,192.95 c 0,0 303.44,398.37 435.71,348.57 132.28,-49.79 -85.5999,-413.93 -85.5999,-412.37 0,0 130.4899,99.46 200.7499,312.78 32.1301,97.55 4.67,225.64 -122.93,220.98" /></g></g></svg>