<?xml version="1.0" encoding="UTF-8" standalone="no"?>
<!-- Created with Inkscape (http://www.inkscape.org/) -->

<svg
   xmlns:dc="http://purl.org/dc/elements/1.1/"
   xmlns:cc="http://creativecommons.org/ns#"
   xmlns:rdf="http://www.w3.org/1999/02/22-rdf-syntax-ns#"
   xmlns:svg="http://www.w3.org/2000/svg"
   xmlns="http://www.w3.org/2000/svg"
   xmlns:sodipodi="http://sodipodi.sourceforge.net/DTD/sodipodi-0.dtd"
   xmlns:inkscape="http://www.inkscape.org/namespaces/inkscape"
   version="1.1"
   id="svg2"
   xml:space="preserve"
   width="417.61334"
   height="151.75999"
   viewBox="0 0 417.61334 151.75999"
   sodipodi:docname="liu.svg"
   inkscape:version="0.92.5 (2060ec1f9f, 2020-04-08)"><metadata
     id="metadata8"><rdf:RDF><cc:Work
         rdf:about=""><dc:format>image/svg+xml</dc:format><dc:type
           rdf:resource="http://purl.org/dc/dcmitype/StillImage" /><dc:title></dc:title></cc:Work></rdf:RDF></metadata><defs
     id="defs6" /><sodipodi:namedview
     pagecolor="#ffffff"
     bordercolor="#666666"
     borderopacity="1"
     objecttolerance="10"
     gridtolerance="10"
     guidetolerance="10"
     inkscape:pageopacity="0"
     inkscape:pageshadow="2"
     inkscape:window-width="1920"
     inkscape:window-height="1015"
     id="namedview4"
     showgrid="false"
     inkscape:zoom="0.77823184"
     inkscape:cx="208.80667"
     inkscape:cy="75.879997"
     inkscape:window-x="1920"
     inkscape:window-y="292"
     inkscape:window-maximized="1"
     inkscape:current-layer="g10" /><g
     id="g10"
     inkscape:groupmode="layer"
     inkscape:label="ink_ext_XXXXXX"
     transform="matrix(1.3333333,0,0,-1.3333333,0,151.76)"><g
       id="g12"
       transform="scale(0.1)"><path
         d="M 482.477,216.762 H 696.871 V 694.648 H 482.477 V 216.762"
         style="fill:#231f20;fill-opacity:1;fill-rule:nonzero;stroke:none"
         id="path14"
         inkscape:connector-curvature="0" /><path
         d="m 216.754,216.762 h 214.398 v 692.16 H 216.754 v -692.16"
         style="fill:#231f20;fill-opacity:1;fill-rule:nonzero;stroke:none"
         id="path16"
         inkscape:connector-curvature="0" /><path
         d="m 951.105,312.719 c 0,63.004 -50.96,114.566 -114.328,114.566 -62.269,0 -113.238,-51.562 -113.238,-114.566 0,-63.008 50.969,-113.43 113.238,-113.43 63.368,0 114.328,50.422 114.328,113.43"
         style="fill:#231f20;fill-opacity:1;fill-rule:nonzero;stroke:none"
         id="path18"
         inkscape:connector-curvature="0" /><path
         d="M 1226.12,694.648 V 417.305 c 0,-24.578 -10.13,-36.883 -30.38,-36.883 -20.54,0 -30.81,12.305 -30.81,36.883 V 694.648 H 951.137 V 470.684 c 0,-78.883 18.531,-140.547 55.593,-184.93 47.69,-56.887 110.63,-82.695 188.79,-82.695 78.17,0 141.1,25.808 188.8,82.695 37.06,44.383 55.58,106.047 55.58,184.93 v 223.964 h -213.78"
         style="fill:#231f20;fill-opacity:1;fill-rule:nonzero;stroke:none"
         id="path20"
         inkscape:connector-curvature="0" /><path
         d="m 1891.22,489.609 h -17.02 l -0.25,0.45 -100.03,168.136 V 489.609 h -18.86 v 205.055 h 16.73 l 0.27,-0.449 100.3,-168.688 v 169.137 h 18.86 V 489.609"
         style="fill:#231f20;fill-opacity:1;fill-rule:nonzero;stroke:none"
         id="path22"
         inkscape:connector-curvature="0" /><path
         d="m 2611.21,489.609 h -17.02 l -0.26,0.45 -100.02,168.136 V 489.609 h -18.87 v 205.055 h 16.72 l 0.28,-0.449 100.29,-168.688 v 169.137 h 18.88 V 489.609"
         style="fill:#231f20;fill-opacity:1;fill-rule:nonzero;stroke:none"
         id="path24"
         inkscape:connector-curvature="0" /><path
         d="m 1672.38,489.609 h -108.21 v 205.055 h 18.84 V 507.891 h 89.37 v -18.282"
         style="fill:#231f20;fill-opacity:1;fill-rule:nonzero;stroke:none"
         id="path26"
         inkscape:connector-curvature="0" /><path
         d="m 1713.44,489.609 h -18.85 v 205.055 h 18.85 V 489.609"
         style="fill:#231f20;fill-opacity:1;fill-rule:nonzero;stroke:none"
         id="path28"
         inkscape:connector-curvature="0" /><path
         d="m 2118.31,706.715 c -6.22,0 -11.48,5.258 -11.48,11.476 0,6.219 5.26,11.485 11.48,11.485 6.22,0 11.48,-5.266 11.48,-11.485 0,-6.218 -5.26,-11.476 -11.48,-11.476 z m 52.52,0 c -6.22,0 -11.47,5.258 -11.47,11.476 0,6.219 5.25,11.485 11.47,11.485 6.23,0 11.48,-5.266 11.48,-11.485 0,-6.218 -5.25,-11.476 -11.48,-11.476 z m -26.25,-27.149 c -29.97,0 -50.1,-21.179 -50.1,-52.683 v -68.602 c 0,-31.531 20.13,-52.691 50.1,-52.691 29.96,0 50.08,21.16 50.08,52.691 v 68.309 c 0,31.68 -20.12,52.976 -50.08,52.976 z m 0,-192.25 c -40.61,0 -68.97,29.422 -68.97,71.524 v 67.172 c 0,42.293 28.36,71.816 68.97,71.816 40.58,0 68.94,-29.523 68.94,-71.816 V 558.84 c 0,-42.102 -28.36,-71.524 -68.94,-71.524"
         style="fill:#231f20;fill-opacity:1;fill-rule:nonzero;stroke:none"
         id="path30"
         inkscape:connector-curvature="0" /><path
         d="m 2269.71,566.691 h 39.44 c 32.26,0 51.54,18.938 51.54,50.668 v 7.211 c 0,32.75 -18.79,51.539 -51.54,51.539 h -39.44 z m 0,-77.082 h -18.85 v 205.055 h 58.87 c 42.4,0 69.81,-27.508 69.81,-70.094 v -7.488 c 0,-42.363 -26.75,-68.66 -69.81,-68.66 h -40.02 v -58.813"
         style="fill:#231f20;fill-opacity:1;fill-rule:nonzero;stroke:none"
         id="path32"
         inkscape:connector-curvature="0" /><path
         d="m 2431.24,489.609 h -18.86 v 205.055 h 18.86 V 489.609"
         style="fill:#231f20;fill-opacity:1;fill-rule:nonzero;stroke:none"
         id="path34"
         inkscape:connector-curvature="0" /><path
         d="m 2717.06,486.738 c -40.42,0 -68.66,29.414 -68.66,71.543 v 68.309 c 0,42.113 28.24,71.539 68.66,71.539 39.71,0 68.06,-28.703 68.94,-69.797 l 0.02,-0.934 h -18.85 l -0.02,0.907 c -0.54,30.828 -20.67,51.55 -50.09,51.55 -31.2,0 -49.81,-21.527 -49.81,-57.593 V 557.98 c 0,-31.523 20.02,-52.683 49.81,-52.683 29.97,0 50.09,21.16 50.09,52.683 v 10.625 h -50.72 v 17.098 H 2786 v -27.422 c 0,-42.129 -28.35,-71.543 -68.94,-71.543"
         style="fill:#231f20;fill-opacity:1;fill-rule:nonzero;stroke:none"
         id="path36"
         inkscape:connector-curvature="0" /><path
         d="m 2071.89,489.609 h -22.43 l -0.28,0.356 -71.28,95.055 h -21.04 v -95.411 h -18.85 v 205.055 h 18.85 v -91.941 h 21.31 l 60.86,91.941 h 21.56 l -66.66,-100.945 77.96,-104.11"
         style="fill:#231f20;fill-opacity:1;fill-rule:nonzero;stroke:none"
         id="path38"
         inkscape:connector-curvature="0" /><path
         d="m 1880.57,216.762 h -17.01 l -0.26,0.449 -100.02,168.125 V 216.762 h -18.86 v 205.047 h 16.72 l 0.26,-0.442 100.3,-168.711 v 169.153 h 18.87 V 216.762"
         style="fill:#231f20;fill-opacity:1;fill-rule:nonzero;stroke:none"
         id="path40"
         inkscape:connector-curvature="0" /><path
         d="m 2050.45,216.762 h -18.04 l -0.22,0.625 -66.95,204.422 h 19.82 l 0.21,-0.618 56.16,-174.644 56.68,175.262 h 19.82 l -0.43,-1.204 -67.05,-203.843"
         style="fill:#231f20;fill-opacity:1;fill-rule:nonzero;stroke:none"
         id="path42"
         inkscape:connector-curvature="0" /><path
         d="m 1630.23,214.465 c -40.58,0 -68.94,29.414 -68.94,71.531 v 135.813 h 18.85 V 285.422 c 0,-31.516 20.14,-52.688 50.09,-52.688 29.97,0 50.11,21.172 50.11,52.688 v 136.387 h 18.84 V 285.996 c 0,-42.117 -28.35,-71.531 -68.95,-71.531"
         style="fill:#231f20;fill-opacity:1;fill-rule:nonzero;stroke:none"
         id="path44"
         inkscape:connector-curvature="0" /><path
         d="m 1943.61,216.762 h -18.85 v 205.047 h 18.85 V 216.762"
         style="fill:#231f20;fill-opacity:1;fill-rule:nonzero;stroke:none"
         id="path46"
         inkscape:connector-curvature="0" /><path
         d="m 2299.66,299.641 h 39.43 c 32.27,0 51.54,17.636 51.54,47.214 v 8.071 c 0,31.187 -18.3,48.355 -51.54,48.355 h -39.43 z m 110.21,-82.84 h -22.81 l -0.28,0.347 -49,64.219 h -38.12 v -64.566 h -18.85 v 205.047 h 59.72 c 42.53,0 68.95,-25.871 68.95,-67.508 v -7.485 c 0,-33.726 -19.5,-56.929 -52.27,-62.351 l 52.66,-67.703"
         style="fill:#231f20;fill-opacity:1;fill-rule:nonzero;stroke:none"
         id="path48"
         inkscape:connector-curvature="0" /><path
         d="m 2620.96,216.801 h -18.85 v 205.047 h 18.85 V 216.801"
         style="fill:#231f20;fill-opacity:1;fill-rule:nonzero;stroke:none"
         id="path50"
         inkscape:connector-curvature="0" /><path
         d="m 2253.17,216.762 h -114.54 v 205.047 h 111.93 v -18.547 h -93.08 v -74.254 h 68.6 v -17.129 h -68.6 v -76.82 h 95.69 v -18.297"
         style="fill:#231f20;fill-opacity:1;fill-rule:nonzero;stroke:none"
         id="path52"
         inkscape:connector-curvature="0" /><path
         d="m 2503.89,327.504 c -26.91,6.734 -52.33,13.113 -52.33,41.824 0,23.613 16.12,37.703 45.32,37.703 22.27,0 45.98,-12.754 47.1,-48.101 h 18.91 c -1.14,48.867 -34.32,66.367 -65.43,66.367 -40.58,0 -64.47,-21.449 -64.47,-55.969 0,-42.433 33.88,-51.008 63.77,-58.566 26.05,-6.563 50.66,-12.782 50.66,-39.727 0,-29.273 -25.42,-39.707 -49.23,-39.707 -31.19,0 -49.81,20.332 -49.81,54.414 v 0.918 h -18.57 v -0.918 c 0,-43.98 26.86,-72.398 68.38,-72.398 41.36,0 68.08,22.761 68.08,57.984 0,40.527 -31.71,48.477 -62.38,56.176"
         style="fill:#231f20;fill-opacity:1;fill-rule:nonzero;stroke:none"
         id="path54"
         inkscape:connector-curvature="0" /><path
         d="m 2711.92,216.801 h -18.85 v 186.48 h -54.78 v 18.567 h 126.39 v -18.567 h -52.76 v -186.48"
         style="fill:#231f20;fill-opacity:1;fill-rule:nonzero;stroke:none"
         id="path56"
         inkscape:connector-curvature="0" /><path
         d="m 2792.14,421.848 51.64,-110.926 51.79,110.926 h 19.76 L 2852.5,293.352 v -76.551 h -17.15 v 76.551 l -62.55,128.496 h 19.34"
         style="fill:#231f20;fill-opacity:1;fill-rule:nonzero;stroke:none"
         id="path58"
         inkscape:connector-curvature="0" /></g></g></svg>