<svg width="301" height="52" viewBox="0 0 301 52" fill="none" xmlns="http://www.w3.org/2000/svg">
<g clip-path="url(#clip0_1437_141)">
<path d="M22.7535 21.162C23.6408 22.6127 24.162 24.3169 24.162 26.1338C24.162 31.4155 19.8662 35.7113 14.5845 35.7113C9.30282 35.7113 5.00704 31.4155 5.00704 26.1338C5.00704 20.8521 9.30282 16.5564 14.5845 16.5564C16.4155 16.5564 18.1056 17.0775 19.5563 17.9648L22.7958 14.7254C20.4718 13.0493 17.6408 12.0493 14.5704 12.0493C6.82394 12.0493 0.5 18.3733 0.5 26.1338C0.5 33.8944 6.82394 40.2183 14.5845 40.2183C22.3451 40.2183 28.669 33.8944 28.669 26.1338C28.669 23.0634 27.669 20.2324 25.993 17.9085L22.7535 21.1479V21.162Z" fill="#203646"/>
<path d="M19.5564 24.3451L16.3733 21.1479L19.5564 17.9648L22.7536 21.1479L19.5564 24.3451Z" fill="#3F6C8D"/>
<path d="M21.5142 22.3873L18.3311 19.2042L19.5564 17.9648L22.7536 21.1479L21.5142 22.3873Z" fill="#729FC0"/>
</g>
<g clip-path="url(#clip1_1437_141)">
<path d="M299.373 40.5704C299.035 40.4859 291.148 38.3169 290.641 26.2324C290.556 24.2324 290.5 11.8803 290.486 11.3591V6.41547H294.993V11.345C294.993 11.4577 295.063 24.1338 295.134 26.0352C295.5 34.6831 300.444 36.1901 300.486 36.2042L299.359 40.5704H299.373Z" fill="#203646"/>
<path d="M121.148 12.0493C117.556 12.0493 114.275 13.4577 111.796 15.7535C111.754 15.7817 111.711 15.7535 111.711 15.7112V6.41547H107.204V40.2183H111.711V26.2746C111.711 20.9225 115.951 16.5563 121.148 16.5563C126.345 16.5563 130.585 20.9225 130.585 26.2746V40.2183H135.092V26.2746C135.092 18.4296 128.838 12.0493 121.148 12.0493Z" fill="#203646"/>
<path d="M61.0634 40.2183C53.3028 40.2183 46.9789 33.8943 46.9789 26.1338C46.9789 18.3732 53.3028 12.0493 61.0634 12.0493C68.824 12.0493 75.1479 18.3732 75.1479 26.1338C75.1479 33.8943 68.824 40.2183 61.0634 40.2183ZM61.0634 16.5563C55.7817 16.5563 51.4859 20.8521 51.4859 26.1338C51.4859 31.4155 55.7817 35.7112 61.0634 35.7112C66.3451 35.7112 70.6409 31.4155 70.6409 26.1338C70.6409 20.8521 66.3451 16.5563 61.0634 16.5563Z" fill="#203646"/>
<path d="M151.613 40.2183C143.852 40.2183 137.528 33.8943 137.528 26.1338C137.528 18.3732 143.852 12.0493 151.613 12.0493C159.373 12.0493 165.697 18.3732 165.697 26.1338C165.697 33.8943 159.373 40.2183 151.613 40.2183ZM151.613 16.5563C146.331 16.5563 142.035 20.8521 142.035 26.1338C142.035 31.4155 146.331 35.7112 151.613 35.7112C156.894 35.7112 161.19 31.4155 161.19 26.1338C161.19 20.8521 156.894 16.5563 151.613 16.5563Z" fill="#203646"/>
<path d="M212.796 40.2183C205.035 40.2183 198.711 33.8943 198.711 26.1338C198.711 18.3732 205.035 12.0493 212.796 12.0493C220.556 12.0493 226.88 18.3732 226.88 26.1338C226.88 33.8943 220.556 40.2183 212.796 40.2183ZM212.796 16.5563C207.514 16.5563 203.218 20.8521 203.218 26.1338C203.218 31.4155 207.514 35.7112 212.796 35.7112C218.077 35.7112 222.373 31.4155 222.373 26.1338C222.373 20.8521 218.077 16.5563 212.796 16.5563Z" fill="#203646"/>
<path d="M257.472 40.2183H252.965V26.1338C252.965 20.8521 248.669 16.5563 243.387 16.5563C238.106 16.5563 233.81 20.8521 233.81 26.1338V40.2183H229.303V26.1338C229.303 18.3732 235.627 12.0493 243.387 12.0493C251.148 12.0493 257.472 18.3732 257.472 26.1338V40.2183Z" fill="#203646"/>
<path d="M77.5986 40.2183C77.5986 40.2183 77.5845 30.3591 77.5845 26.1338C77.5845 19.1338 82.7112 12.0493 92.5141 12.0493V16.5563C84.2887 16.5563 82.0915 22.5704 82.0915 26.1338C82.0915 30.3591 82.1056 40.2183 82.1056 40.2183H77.5986Z" fill="#203646"/>
<path d="M104.782 12.0493H99.4436V6.41547H94.9366V40.2183H99.4436V16.5563H104.782V12.0493Z" fill="#203646"/>
<path d="M183.078 12.0774C173.951 11.514 166.528 19.7112 168.401 29.0493C169.514 34.5845 174.049 38.9929 179.613 39.9929C184.275 40.8239 188.599 39.345 191.683 36.5281C191.725 36.5 191.768 36.5281 191.768 36.5704C191.768 39.7535 190.275 42.7957 187.627 44.5563C182.852 47.7394 177.049 46.2887 174.134 42.2183L170.472 44.838C174.092 49.9084 180.782 52.2042 187.007 49.9084C192.683 47.8098 196.275 42.1901 196.275 36.1338C196.275 33.2464 196.275 29.6549 196.275 26.5563C196.275 19.0493 190.57 12.5422 183.063 12.0915L183.078 12.0774ZM182.204 35.7112C176.923 35.7112 172.627 31.4154 172.627 26.1338C172.627 20.8521 176.923 16.5563 182.204 16.5563C187.486 16.5563 191.782 20.8521 191.782 26.1338C191.782 31.4154 187.486 35.7112 182.204 35.7112Z" fill="#203646"/>
<path d="M274.866 12.0775C265.739 11.5282 258.317 19.7113 260.204 29.0493C261.317 34.5845 265.852 38.993 271.416 39.993C276.077 40.824 280.401 39.3451 283.486 36.5282C283.528 36.5 283.57 36.5282 283.57 36.5704V40.2324H288.077C288.077 40.2324 288.077 32.5704 288.077 26.5564C288.077 19.0493 282.373 12.5423 274.866 12.0916V12.0775ZM273.979 35.7113C268.697 35.7113 264.401 31.4155 264.401 26.1338C264.401 20.8521 268.697 16.5564 273.979 16.5564C279.261 16.5564 283.556 20.8521 283.556 26.1338C283.556 31.4155 279.261 35.7113 273.979 35.7113Z" fill="#203646"/>
</g>
<defs>
<clipPath id="clip0_1437_141">
<rect width="39.4366" height="50.7042" fill="white" transform="translate(0.5 0.781677)"/>
</clipPath>
<clipPath id="clip1_1437_141">
<rect width="253.521" height="50.7042" fill="white" transform="translate(46.9789 0.781677)"/>
</clipPath>
</defs>
</svg>
